<svg width="40" height="40" viewBox="0 0 40 40" fill="none" xmlns="http://www.w3.org/2000/svg">
<path d="M36.6666 20L29.9999 13.3333V18.3333H16.6666V21.6667H29.9999V26.6667M33.3333 30C31.2344 32.7984 28.3083 34.8656 24.9694 35.9086C21.6304 36.9516 18.048 36.9176 14.7295 35.8114C11.4109 34.7052 8.52456 32.5829 6.47922 29.7452C4.43387 26.9074 3.33325 23.4981 3.33325 20C3.33325 16.502 4.43387 13.0926 6.47922 10.2548C8.52456 7.41708 11.4109 5.2948 14.7295 4.18862C18.048 3.08244 21.6304 3.04845 24.9694 4.09145C28.3083 5.13445 31.2344 7.20158 33.3333 10H28.7833C26.8588 8.30278 24.4854 7.19692 21.948 6.81511C19.4106 6.4333 16.817 6.79177 14.4782 7.84751C12.1395 8.90324 10.1551 10.6114 8.76314 12.767C7.37116 14.9226 6.63075 17.434 6.63075 20C6.63075 22.566 7.37116 25.0774 8.76314 27.233C10.1551 29.3886 12.1395 31.0968 14.4782 32.1525C16.817 33.2082 19.4106 33.5667 21.948 33.1849C24.4854 32.8031 26.8588 31.6972 28.7833 30H33.3333Z" fill="#F2F2F2"/>
</svg>
