<svg width="40" height="40" viewBox="0 0 40 40" fill="none" xmlns="http://www.w3.org/2000/svg">
<path d="M15 25H25M15 20H25M5 9.99999V28C5 29.8667 5 30.8 5.36333 31.5117C5.68333 32.14 6.19167 32.65 6.82 32.97C7.53167 33.3333 8.465 33.3333 10.3283 33.3333H29.6733C31.5367 33.3333 32.4683 33.3333 33.18 32.97C33.8067 32.65 34.3167 32.14 34.6367 31.5133C35 30.8 35 29.8667 35 28V15.3333C35 13.4667 35 12.5333 34.6367 11.82C34.3166 11.1926 33.8061 10.6827 33.1783 10.3633C32.4667 9.99999 31.5333 9.99999 29.6667 9.99999H20M5 9.99999H20M5 9.99999C5 9.11593 5.35119 8.26809 5.97631 7.64297C6.60143 7.01785 7.44928 6.66666 8.33333 6.66666H14.4583C15.2733 6.66666 15.6817 6.66666 16.065 6.75832C16.405 6.84166 16.73 6.97499 17.0283 7.15832C17.365 7.36499 17.6533 7.65332 18.2283 8.22999L20 9.99999" stroke="black" strokeWidth="2" strokeLinecap="round" strokeLinejoin="round"/>
</svg>
