<svg width="40" height="40" viewBox="0 0 40 40" fill="none" xmlns="http://www.w3.org/2000/svg">
<g clip-path="url(#clip0_524_78)">
<path fill-rule="evenodd" clip-rule="evenodd" d="M19.9999 3.33334C10.7949 3.33334 3.33325 10.795 3.33325 20C3.33325 29.205 10.7949 36.6667 19.9999 36.6667C29.2049 36.6667 36.6666 29.205 36.6666 20C36.6666 10.795 29.2049 3.33334 19.9999 3.33334ZM14.1666 15.8333C14.1666 15.0673 14.3175 14.3088 14.6106 13.601C14.9038 12.8933 15.3335 12.2502 15.8751 11.7086C16.4168 11.1669 17.0599 10.7372 17.7676 10.444C18.4753 10.1509 19.2339 10 19.9999 10C20.766 10 21.5245 10.1509 22.2322 10.444C22.94 10.7372 23.583 11.1669 24.1247 11.7086C24.6664 12.2502 25.0961 12.8933 25.3892 13.601C25.6824 14.3088 25.8333 15.0673 25.8333 15.8333C25.8333 17.3804 25.2187 18.8642 24.1247 19.9581C23.0307 21.0521 21.547 21.6667 19.9999 21.6667C18.4528 21.6667 16.9691 21.0521 15.8751 19.9581C14.7812 18.8642 14.1666 17.3804 14.1666 15.8333ZM30.4299 28.3067C29.1823 29.876 27.5963 31.1433 25.7902 32.0137C23.9841 32.8841 22.0048 33.3352 19.9999 33.3333C17.9951 33.3352 16.0157 32.8841 14.2096 32.0137C12.4036 31.1433 10.8175 29.876 9.56992 28.3067C12.2716 26.3683 15.9583 25 19.9999 25C24.0416 25 27.7283 26.3683 30.4299 28.3067Z" fill="#F2F2F2"/>
</g>
<defs>
<clipPath id="clip0_524_78">
<rect width="40" height="40" fill="white"/>
</clipPath>
</defs>
</svg>
